# AST/ASF file generated using VICON BodyLanguage
# -----------------------------------------------
:version 1.10
:name VICON
:units
  mass 1.0
  length 0.45
  angle deg
:documentation
   .ast/.asf automatically generated from VICON data using
   VICON BodyBuilder and BodyLanguage model FoxedUp or BRILLIANT.MOD
:root
   order TX TY TZ RX RY RZ
   axis XYZ
   position 0 0 0  
   orientation 0 0 0 
:bonedata
  begin
     id 1 
     name lhipjoint
     direction 0.573633 -0.743009 0.344793 
     length 2.46257 
     axis 0 0 0  XYZ
  end
  begin
     id 2 
     name lfemur
     direction 0.34202 -0.939693 0  
     length 7.3842  
     axis 0 0 20  XYZ
    dof rx ry rz
    limits (-160.0 20.0)
           (-70.0 70.0)
           (-60.0 70.0)
  end
  begin
     id 3 
     name ltibia
     direction 0.34202 -0.939693 0   
     length 7.50407   
     axis 0 0 20   XYZ
    dof rx
    limits (-10.0 170.0)
  end
  begin
     id 4 
     name lfoot
     direction 0.110749 -0.304281 0.946123   
     length 1.95925   
     axis -90 7.62852e-016 20   XYZ
    dof rx rz
    limits (-45.0 90.0)
           (-70.0 20.0)
  end
  begin
     id 5 
     name ltoes
     direction 1.53554e-011 -4.21843e-011 1   
     length 0.978318   
     axis -90 7.62852e-016 20   XYZ
    dof rx
    limits (-90.0 20.0)
  end
  begin
     id 6 
     name rhipjoint
     direction -0.488109 -0.791693 0.367385   
     length 2.31113  
     axis 0 0 0  XYZ 
  end
  begin
     id 7 
     name rfemur
     direction -0.34202 -0.939693 0   
     length 7.40965   
     axis 0 0 -20   XYZ
    dof rx ry rz
    limits (-160.0 20.0)
           (-70.0 70.0)
           (-70.0 60.0)
  end
  begin
     id 8 
     name rtibia
     direction -0.34202 -0.939693 0   
     length 7.55548   
     axis 0 0 -20   XYZ
    dof rx
    limits (-10.0 170.0)
 end
 begin
     id 9 
     name rfoot
     direction -0.127594 -0.350561 0.927808   
     length 2.07199  
     axis -90 -7.62852e-016 -20   XYZ
    dof rx rz
    limits (-45.0 90.0)
           (-20.0 70.0)
  end
  begin
     id 10 
     name rtoes
     direction -1.53542e-011 -4.21909e-011 1   
     length 1.02667   
     axis -90 -7.62852e-016 -20   XYZ
    dof rx
    limits (-90.0 20.0)
  end
  begin
     id 11 
     name lowerback
     direction -0.0103342 0.997298 -0.0727278   
     length 2.02836   
     axis 0 0 0   XYZ
    dof rx ry rz
    limits (-20.0 45.0)
           (-30.0 30.0)
           (-30.0 30.0)
  end
  begin
     id 12 
     name upperback
     direction 0.0171146 0.999786 -0.011606   
     length 2.03179   
     axis 0 0 0   XYZ
    dof rx ry rz
    limits (-20.0 45.0)
           (-30.0 30.0)
           (-30.0 30.0)
  end
  begin
     id 13 
     name thorax
     direction 0.0216927 0.999513 0.0224343   
     length 2.03882   
     axis 0 0 0   XYZ
    dof rx ry rz
    limits (-20.0 45.0)
           (-30.0 30.0)
           (-30.0 30.0)
  end
  begin
     id 14 
     name lowerneck
     direction 0.000989287 0.993907 0.110221   
     length 1.75428   
     axis 0 0 0   XYZ
    dof rx ry rz
    limits (-20.0 45.0)
           (-30.0 30.0)
           (-30.0 30.0)
  end
  begin
     id 15 
     name upperneck
     direction -0.0172474 0.994813 -0.100253   
     length 1.77058   
     axis 0 0 0   XYZ
    dof rx ry rz
    limits (-20.0 45.0)
           (-30.0 30.0)
           (-30.0 30.0)
  end
  begin
     id 16
     name head
     direction -0.00486455 0.99894 -0.0457663  
     length 1.77427  
     axis 0 0 0   XYZ
    dof rx ry rz
    limits (-20.0 45.0)
           (-30.0 30.0)
           (-30.0 30.0)
  end
  begin
     id 17 
     name lclavicle
     direction 0.927314 0.333734 -0.169441  
     length 3.97584  
     axis 0 0 0   XYZ
    dof ry rz
    limits (-20.0 10.0)
           (0.0 20.0)
  end
  begin
     id 18 
     name lhumerus
     direction 1 -4.48965e-011 -3.25313e-028   
     length 4.76468   
     axis 180 -30 -90   XYZ
    dof rx ry rz
    limits (-60.0 90.0)
           (-90.0 90.0)
           (-90.0 90.0)
  end
  begin
     id 19
     name lradius
     direction 1 -4.48969e-011 -2.8465e-028   
     length 3.52712   
     axis -180 -30 -90   XYZ
    dof rx
    limits (-10.0 170.0)
  end
  begin
     id 20
     name lwrist
     direction 1 -4.4896e-011 -7.78665e-028   
     length 1.76356   
     axis 1.91374e-015 90 90   XYZ
    dof ry
    limits (-180.0 0.0)
 end
  begin
     id 21 
     name lhand
     direction 1 -4.48959e-011 -1.55733e-027   
     length 0.859564   
     axis 9.9371e-016 90 90   XYZ
    dof rx rz
    limits (-90.0 90.0)
           (-45.0 45.0)
  end
  begin
     id 22 
     name lfingers
     direction 1 -4.48965e-011 -3.11466e-027   
     length 0.693002   
     axis 1.98742e-015 90 90   XYZ
    dof rx
    limits (0.0 90.0)
  end
  begin
     id 23
     name lthumb
     direction 0.707107 -6.34948e-011 0.707107   
     length 0.995017   
     axis -90 45 2.85299e-015   XYZ
    dof rx rz
    limits (-45.0 45.0)
           (-45.0 45.0)
  end
  begin
     id 24 
     name rclavicle
     direction -0.899388 0.348209 -0.264294   
     length 3.68366  
     axis 0 0 0   XYZ 
    dof ry rz
    limits (-10.0 20.0)
           (-20.0 0.0)
  end
  begin
     id 25 
     name rhumerus
     direction -1 -4.48965e-011 -3.01536e-027  
     length 4.90577   
     axis 180 30 90   XYZ
    dof rx ry rz
    limits (-90.0 60.0)
           (-90.0 90.0)
           (-90.0 90.0)
  end
  begin
     id 26 
     name rradius
     direction -1 -4.48966e-011 3.93291e-027   
     length 3.42692   
     axis -180 30 90   XYZ
    dof rx
    limits (-10.0 170.0)
  end
  begin
     id 27 
     name rwrist
     direction -1 -4.48969e-011 -7.78665e-028   
     length 1.71346   
     axis 1.91374e-015 -90 -90   XYZ
    dof ry
    limits (-180.0 0.0)
  end
  begin
     id 28
     name rhand
     direction -1 -4.48967e-011 -1.55733e-027   
     length 0.740957   
     axis 9.9371e-016 -90 -90   XYZ
    dof rx rz
    limits (-90.0 90.0)
           (-45.0 45.0)
  end
  begin
     id 29
     name rfingers
     direction -1 -4.48949e-011 -3.11466e-027   
     length 0.597378   
     axis 1.98742e-015 -90 -90   XYZ
    dof rx
    limits (0.0 90.0)
  end
  begin
     id 30
     name rthumb
     direction -0.707107 -6.34931e-011 0.707107   
     length 0.857719   
     axis -90 -45 -2.85299e-015   XYZ
    dof rx rz
    limits (-45.0 45.0)
           (-45.0 45.0)
  end
:hierarchy
  begin
    root lhipjoint rhipjoint lowerback
    lhipjoint lfemur
    lfemur ltibia
    ltibia lfoot
    lfoot ltoes
    rhipjoint rfemur
    rfemur rtibia
    rtibia rfoot
    rfoot rtoes
    lowerback upperback
    upperback thorax
    thorax lowerneck lclavicle rclavicle
    lowerneck upperneck
    upperneck head
    lclavicle lhumerus
    lhumerus lradius
    lradius lwrist
    lwrist lhand lthumb
    lhand lfingers
    rclavicle rhumerus
    rhumerus rradius
    rradius rwrist
    rwrist rhand rthumb
    rhand rfingers
  end

#!OML:ASF E:\I on waltz\AllaLogoMonkeySwing\Project 1\Capture day 1\Session 1\Subject1.ASF
:FULLY-SPECIFIED
:DEGREES
178
root -0.479886 17.6081 4.17777 -0.621624 3.48262 -3.61326
lowerback 12.0453 0.796263 -2.17114
upperback -2.24089 0.84271 1.25755
thorax -9.23782 0.563714 2.40746
lowerneck -14.6676 0.331282 0.489354
upperneck 11.0067 -0.0143368 2.53985
head 5.72893 0.212054 0.723205
rclavicle 2.57488e-015 -3.97569e-016
rhumerus -34.1141 17.1225 -90.0985
rradius 104.636
rwrist -7.78853
rhand 0.14374 -17.7605
rfingers 7.12502
rthumb 25.728 -46.0414
lclavicle 2.57488e-015 -3.97569e-016
lhumerus -44.9885 -16.8869 103.516
lradius 115.036
lwrist 13.4779
lhand -9.72801 -38.0655
lfingers 7.12502
lthumb 16.2456 -8.72616
rfemur -3.94321 -7.93883 16.6276
rtibia 49.065
rfoot -3.00815 -2.05067
rtoes -8.67336
lfemur -2.9011 -4.88363 -12.8813
ltibia 47.6138
lfoot -5.82769 -12.694
ltoes -42.7925
179
root -0.413824 18.313 5.05118 -1.89 2.90984 -3.11077
lowerback 9.22842 0.949176 -2.16806
upperback -2.26205 1.08342 1.04604
thorax -7.63916 0.656222 2.15535
lowerneck -14.4832 0.151671 0.0519796
upperneck 12.9746 -0.249045 2.80072
head 6.32634 0.117662 0.863594
rclavicle -1.39274e-014 -2.78299e-015
rhumerus -34.9875 17.452 -88.4478
rradius 110.544
rwrist -4.91017
rhand -0.331065 -16.9483
rfingers 7.12502
rthumb 25.2732 -45.2943
lclavicle -1.39274e-014 -2.78299e-015
lhumerus -46.4284 -17.6336 102.764
lradius 119.554
lwrist 10.4076
lhand -10.2072 -41.7013
lfingers 7.12502
lthumb 15.7841 -12.3249
rfemur 0.689822 -6.0245 14.966
rtibia 42.2998
rfoot 14.4364 0.498419
rtoes -4.22423
lfemur 2.65965 -6.39995 -14.6089
ltibia 39.2323
lfoot 12.6991 -17.8531
ltoes -41.4372
180
root -0.337843 19.0155 5.91144 -2.87266 1.96887 -2.8489
lowerback 6.80377 1.22467 -1.92278
upperback -2.63606 1.52227 1.05639
thorax -6.65868 0.855711 1.99559
lowerneck -14.3452 -0.0316044 -0.261333
upperneck 15.6102 -0.413932 2.36847
head 7.15292 0.00525973 0.771057
rclavicle 4.84538e-015 -1.2921e-014
rhumerus -36.3972 17.8725 -86.3055
rradius 115.559
rwrist -4.14781
rhand -3.34957 -16.7047
rfingers 7.12502
rthumb 22.3784 -45.4285
lclavicle 4.84538e-015 -1.2921e-014
lhumerus -48.433 -16.7738 101.517
lradius 122.734
lwrist 10.0147
lhand -11.2048 -44.4633
lfingers 7.12502
lthumb 14.8232 -15.0135
rfemur 4.53553 -3.44077 14.0379
rtibia 35.8442
rfoot 26.566 -3.28649
rtoes 13.1259
lfemur 7.23443 -8.19214 -16.4857
ltibia 32.415
lfoot 27.3653 -15.5983
ltoes -30.6055
181
root -0.276309 19.6748 6.66928 -3.23109 1.52306 -3.36661
lowerback 4.86233 1.29844 -0.866938
upperback -2.95866 1.74111 1.25166
thorax -5.86787 0.922837 1.61543
lowerneck -13.7076 -0.0468791 -1.05623
upperneck 16.5792 -0.332366 2.65798
head 7.35655 0.0248498 1.00858
rclavicle 2.41026e-015 1.80894e-014
rhumerus -36.7219 17.9655 -83.5396
rradius 119.575
rwrist -5.04408
rhand -6.3311 -18.1278
rfingers 7.12502
rthumb 19.514 -47.1685
lclavicle 2.41026e-015 1.80894e-014
lhumerus -49.882 -15.3707 99.6151
lradius 125.801
lwrist 10.8985
lhand -11.9368 -43.5144
lfingers 7.12502
lthumb 14.1179 -14.014
rfemur 4.91529 -2.26927 14.8747
rtibia 36.1032
rfoot 29.4335 -1.82972
rtoes 11.1743
lfemur 8.07184 -8.07641 -16.6863
ltibia 31.7462
lfoot 30.2759 -18.0045
ltoes -29.8803
182
root -0.234887 20.2797 7.34371 -2.87387 0.877613 -3.36644
lowerback 3.0847 1.61084 -0.0205642
upperback -3.18303 2.19581 0.932727
thorax -5.05685 1.10923 0.812757
lowerneck -13.2709 -0.250122 -1.53321
upperneck 16.7591 -0.545457 2.82017
head 7.34389 -0.0942755 1.11881
rclavicle -6.4605e-016 3.77691e-015
rhumerus -36.5286 16.6459 -80.8284
rradius 122.439
rwrist -5.96806
rhand -6.28112 -18.4142
rfingers 7.12502
rthumb 19.5621 -47.4501
lclavicle -6.4605e-016 3.77691e-015
lhumerus -51.5566 -13.6749 96.8709
lradius 128.052
lwrist 11.254
lhand -14.5673 -42.3973
lfingers 7.12502
lthumb 11.582 -12.7373
rfemur 2.4673 -1.7825 15.3359
rtibia 40.9444
rfoot 27.4474 -5.4213
rtoes 15.8214
lfemur 6.22491 -6.4636 -16.8394
ltibia 35.3308
lfoot 28.4927 -21.0381
ltoes -32.0159
